<?xml version="1.0" encoding="utf-8"?>
<!-- Generator: Adobe Illustrator 17.0.0, SVG Export Plug-In . SVG Version: 6.00 Build 0)  -->
<!DOCTYPE svg PUBLIC "-//W3C//DTD SVG 1.1//EN" "http://www.w3.org/Graphics/SVG/1.1/DTD/svg11.dtd">
<svg version="1.1" id="Layer_1" xmlns="http://www.w3.org/2000/svg" xmlns:xlink="http://www.w3.org/1999/xlink" x="0px" y="0px"
	 width="87.772px" height="87.534px" viewBox="0 0 87.772 87.534" enable-background="new 0 0 87.772 87.534" xml:space="preserve">
<g>
	<path fill-rule="evenodd" clip-rule="evenodd" fill="#FFFFFF" d="M43.886,0c24.238,0,43.886,19.649,43.886,43.886
		c0,24.238-19.649,43.886-43.886,43.886C19.648,87.772,0,68.124,0,43.886C0,19.649,19.648,0,43.886,0L43.886,0z"/>
	<path fill-rule="evenodd" clip-rule="evenodd" fill="#FFCC99" d="M15.359,77.234c0.517-15.38,5.028-12.619,21.408-19.883
		c2.394-1.062,1.911-6.797,2.029-11.203c3.394,0,6.787,0,10.181,0c0.118,4.406-0.365,10.142,2.029,11.203
		c16.38,7.264,20.891,4.503,21.408,19.883c-7.672,6.569-17.635,10.539-28.527,10.539h0C32.994,87.772,23.031,83.803,15.359,77.234
		L15.359,77.234z"/>
	<path fill-rule="evenodd" clip-rule="evenodd" fill="#D4A270" d="M38.624,53.113c3.775,0.406,7.082,0.979,10.821,1.853
		c-0.415-1.677-0.436-3.969-0.443-6.216c-3.279,0.015-6.949,0.062-10.232,0.077C38.765,50.302,38.752,51.792,38.624,53.113
		L38.624,53.113z"/>
	<path fill-rule="evenodd" clip-rule="evenodd" fill="#FFCC99" d="M29.468,30.089c-2.338-0.003-1.026,10.123,2.181,10.107
		c0.955,5.464,6.563,12.022,12.208,12.022s11.258-6.552,12.214-12.022c3.207,0.016,4.223-10.087,1.769-10.107
		c0.605-11.134-2.552-18.46-13.809-18.46C32.773,11.628,28.863,18.955,29.468,30.089L29.468,30.089z"/>
	<path fill-rule="evenodd" clip-rule="evenodd" fill="#FFFFFF" d="M15.359,77.234c0.517-15.38,5.028-12.619,21.408-19.883
		l7.123,22.672l7.115-22.672c16.38,7.264,20.891,4.503,21.408,19.883c-7.672,6.569-17.635,10.539-28.527,10.539h0
		C32.994,87.772,23.031,83.803,15.359,77.234L15.359,77.234z"/>
	<path fill-rule="evenodd" clip-rule="evenodd" fill="#663300" d="M32.067,39.042c-4.725-19.441,12.939-8.806,17.753-18.198
		c0.584,8.644,9.29,5.227,5.173,18.198C64.381,27.898,61.55,9.489,44.436,9.489C25.54,9.489,24.56,29.386,32.067,39.042
		L32.067,39.042z"/>
	<path fill-rule="evenodd" clip-rule="evenodd" fill="#DD5219" d="M30.647,59.857l8.647,27.677
		c-9.09-0.945-17.354-4.666-23.933-10.299C15.807,63.978,19.221,64.196,30.647,59.857L30.647,59.857z M72.412,77.235
		c-6.579,5.633-14.843,9.354-23.933,10.299l8.647-27.677C68.551,64.196,71.965,63.977,72.412,77.235L72.412,77.235z"/>
	<path fill-rule="evenodd" clip-rule="evenodd" fill="#663300" d="M45.86,74.468c2.038-2.09,4.082-4.741,5.783-7.66
		c-2.761,2.833-6.117,5.208-9.579,6.775c6.902-5.151,13.043-15.311,8.876-23.728c1.518,5.199,0.257,11.975-4.292,15.062
		c3.455-3.847,5.332-9.978,3.463-15.188c2.844-2.26,5.083-5.719,5.833-8.913c2.43,1.665,4.222,3.513,5.371,6.269
		c3.845,9.233-2.203,20.555-10.416,25.706c2.569-2.861,5.028-5.669,6.435-9.956C54.713,67.906,52.437,70.912,45.86,74.468
		L45.86,74.468z"/>
</g>
</svg>
