<?xml version="1.0" encoding="utf-8"?>
<!-- Generator: Adobe Illustrator 17.0.0, SVG Export Plug-In . SVG Version: 6.00 Build 0)  -->
<!DOCTYPE svg PUBLIC "-//W3C//DTD SVG 1.1//EN" "http://www.w3.org/Graphics/SVG/1.1/DTD/svg11.dtd">
<svg version="1.1" id="Layer_1" xmlns="http://www.w3.org/2000/svg" xmlns:xlink="http://www.w3.org/1999/xlink" x="0px" y="0px"
	 width="87.773px" height="87.773px" viewBox="0 0 87.773 87.773" enable-background="new 0 0 87.773 87.773" xml:space="preserve">
<g>
	<path fill-rule="evenodd" clip-rule="evenodd" fill="#FFFFFF" d="M43.886,0c24.238,0,43.886,19.649,43.886,43.886
		c0,24.238-19.649,43.886-43.886,43.886C19.648,87.773,0,68.124,0,43.886C0,19.649,19.648,0,43.886,0L43.886,0z"/>
	<path fill-rule="evenodd" clip-rule="evenodd" fill="#FFCC99" d="M10.537,72.411c0.606-4.373,1.85-7.941,4.455-8.919
		c6.913-2.597,12.945-4.293,19.439-6.376c2.58-0.827,1.954-6.562,2.074-10.969c4.92,0,9.841,0,14.761,0
		c0.12,4.406-0.506,10.141,2.074,10.969c6.495,2.083,12.526,3.779,19.439,6.376c2.605,0.979,3.849,4.546,4.455,8.92
		c-8.049,9.401-20.003,15.361-33.35,15.361S18.586,81.813,10.537,72.411L10.537,72.411z"/>
	<path fill-rule="evenodd" clip-rule="evenodd" fill="#D4A270" d="M36.421,52.577c5.83,0.492,9.916,1.289,15.467,2.954
		c-0.658-1.708-0.615-4.472-0.605-7.136H36.489C36.495,49.82,36.509,51.273,36.421,52.577L36.421,52.577z"/>
	<path fill-rule="evenodd" clip-rule="evenodd" fill="#FFCC99" d="M59.858,29.079c2.662,0.258,0.265,10.774-2.994,10.758
		c-2.522,7.349-5.043,11.677-13.092,11.677c-8.049,0-10.569-4.328-13.091-11.677c-3.26,0.016-5.656-10.5-2.994-10.758
		C26,17.872,27.676,7.854,43.772,7.854C59.869,7.854,61.545,17.872,59.858,29.079L59.858,29.079z"/>
	<path fill-rule="evenodd" clip-rule="evenodd" fill="#DEDCD5" d="M10.537,72.411c0.606-4.373,1.85-7.941,4.455-8.919
		c6.913-2.597,12.945-4.293,19.439-6.376c6.061,1.699,12.349,1.801,18.909,0c6.495,2.083,12.526,3.779,19.439,6.376
		c2.605,0.979,3.849,4.546,4.455,8.92c-8.049,9.401-20.003,15.361-33.35,15.361S18.586,81.813,10.537,72.411L10.537,72.411z"/>
	<path fill-rule="evenodd" clip-rule="evenodd" fill="#DD5219" d="M39.936,61.905l1.97,3.794l-2.701,21.825
		c1.538,0.163,3.099,0.249,4.68,0.249c1.581,0,3.143-0.086,4.68-0.249l-2.701-21.825l1.969-3.792l-3.95-3.02L39.936,61.905
		L39.936,61.905z"/>
	<polygon fill-rule="evenodd" clip-rule="evenodd" fill="#FFFFFF" points="43.907,59.636 37.506,65.87 31.226,58.128 36.303,53.766 
		43.885,58.429 51.472,53.791 56.605,58.147 50.184,65.87 43.907,59.636 	"/>
	<path fill-rule="evenodd" clip-rule="evenodd" fill="#4D4135" d="M52.623,19.843l-11.867,5.484l3.042-5.793l-8.357,8.735
		l1.332-7.104L30.74,33.557c-0.022-2.799-0.477-4.593-3.053-4.477C24.383,9.69,29.625,7.115,43.486,7.115
		c13.861,0,20.613,3.506,16.373,21.964c-2.579-0.115-3.025,1.678-3.047,4.477L52.623,19.843L52.623,19.843z"/>
</g>
</svg>
