<?xml version="1.0" encoding="utf-8"?>
<!-- Generator: Adobe Illustrator 17.0.0, SVG Export Plug-In . SVG Version: 6.00 Build 0)  -->
<!DOCTYPE svg PUBLIC "-//W3C//DTD SVG 1.1//EN" "http://www.w3.org/Graphics/SVG/1.1/DTD/svg11.dtd">
<svg version="1.1" id="Layer_1" xmlns="http://www.w3.org/2000/svg" xmlns:xlink="http://www.w3.org/1999/xlink" x="0px" y="0px"
	 width="87.773px" height="91.044px" viewBox="0 0 87.773 91.044" enable-background="new 0 0 87.773 91.044" xml:space="preserve">
<g>
	<path fill-rule="evenodd" clip-rule="evenodd" fill="#FFFFFF" d="M43.886,3.455c24.238,0,43.886,19.649,43.886,43.886
		S68.124,91.228,43.886,91.228C19.648,91.228,0,71.579,0,47.341S19.648,3.455,43.886,3.455L43.886,3.455z"/>
	<path fill-rule="evenodd" clip-rule="evenodd" fill="#FFCC99" d="M10.537,75.866c0.606-4.374,1.85-7.941,4.456-8.92
		c6.913-2.597,12.945-4.293,19.439-6.376c2.58-0.827,1.954-6.562,2.075-10.969c4.92,0,9.84,0,14.761,0
		c0.12,4.406-0.506,10.141,2.074,10.969c6.495,2.083,12.526,3.779,19.439,6.376c2.605,0.979,3.85,4.546,4.456,8.92
		c-8.049,9.402-20.003,15.361-33.35,15.361h0C30.539,91.228,18.586,85.268,10.537,75.866L10.537,75.866z"/>
	<path fill-rule="evenodd" clip-rule="evenodd" fill="#D4A270" d="M36.421,56.032c5.83,0.492,9.916,1.289,15.467,2.954
		c-0.658-1.708-0.615-4.472-0.605-7.136H36.489C36.495,53.275,36.51,54.728,36.421,56.032L36.421,56.032z"/>
	<path fill-rule="evenodd" clip-rule="evenodd" fill="#FFCC99" d="M27.8,32.534c-2.662,0.258-0.265,10.774,2.995,10.758
		c2.522,7.349,5.043,11.677,13.092,11.677c8.049,0,10.569-4.328,13.091-11.677c3.259,0.016,5.657-10.5,2.994-10.758
		c1.687-11.207,0.011-21.9-16.086-21.9C27.79,10.634,26.114,21.327,27.8,32.534L27.8,32.534z"/>
	<path fill-rule="evenodd" clip-rule="evenodd" fill="#FFFFFF" d="M10.537,75.866c0.606-4.374,1.85-7.941,4.456-8.92
		c6.913-2.597,12.945-4.293,19.439-6.376c6.061,1.699,12.349,1.801,18.909,0c6.495,2.083,12.526,3.779,19.439,6.376
		c2.605,0.979,3.85,4.546,4.456,8.92c-8.049,9.402-20.003,15.361-33.35,15.361h0C30.539,91.228,18.586,85.268,10.537,75.866
		L10.537,75.866z"/>
	<path fill-rule="evenodd" clip-rule="evenodd" fill="#4976A6" d="M47.89,91.044l5.45-30.473c6.495,2.083,12.526,3.779,19.439,6.376
		c2.605,0.979,3.85,4.546,4.456,8.92C70.001,84.316,59.611,89.983,47.89,91.044L47.89,91.044z M39.882,91.044
		c-11.72-1.061-22.111-6.727-29.345-15.177c0.606-4.374,1.85-7.941,4.456-8.92c6.913-2.597,12.945-4.293,19.439-6.376L39.882,91.044
		L39.882,91.044z"/>
	<path fill-rule="evenodd" clip-rule="evenodd" d="M40.683,65.36l1.598,3.231l-2.199,22.47c1.254,0.108,2.522,0.166,3.804,0.166
		c1.282,0,2.551-0.058,3.805-0.166l-2.199-22.47l1.597-3.23l-3.204-2.27L40.683,65.36L40.683,65.36z"/>
	<path fill-rule="evenodd" clip-rule="evenodd" fill="#784F27" d="M56.759,37.853c0.023-3.311,0.51-5.454,3.213-5.319
		c2.93-15.406-0.121-22.247-16.142-22.247c-16.021,0-19.03,6.029-16.03,22.247c2.699-0.134,3.25,2.008,3.275,5.319
		c1.293-3.927,1.551-8.326,1.553-15.047C35.68,29.728,52.509,21.574,56.759,37.853L56.759,37.853z"/>
</g>
</svg>
