<?xml version="1.0" standalone="no"?>
<!DOCTYPE svg PUBLIC "-//W3C//DTD SVG 20010904//EN"
 "http://www.w3.org/TR/2001/REC-SVG-20010904/DTD/svg10.dtd">
<svg version="1.0" xmlns="http://www.w3.org/2000/svg"
 width="260.000000pt" height="260.000000pt" viewBox="0 0 260.000000 260.000000"
 preserveAspectRatio="xMidYMid meet">
<metadata>
Created by potrace 1.11, written by Peter Selinger 2001-2013
</metadata>
<g transform="translate(0.000000,260.000000) scale(0.100000,-0.100000)"
fill="#000000" stroke="none">
<path d="M100 1300 l0 -1200 1200 0 1200 0 0 1200 0 1200 -1200 0 -1200 0 0
-1200z m490 223 c106 -150 196 -273 199 -273 3 0 96 126 206 280 110 153 203
279 208 280 4 0 7 -191 7 -425 l0 -425 -60 0 -60 0 0 262 0 261 -151 -212
c-83 -117 -154 -209 -158 -205 -4 5 -70 96 -147 203 l-139 195 -3 -252 -2
-252 -55 0 -55 0 0 427 c0 241 4 423 9 418 4 -6 95 -133 201 -282z m933 119
c9 -8 17 -25 17 -38 0 -25 -43 -64 -69 -64 -30 0 -61 30 -61 58 0 35 10 49 40
60 28 10 47 6 73 -16z m535 -229 l51 -31 3 26 c3 25 7 27 51 30 l48 3 -3 -285
-3 -284 -30 -44 c-21 -28 -50 -53 -90 -73 -52 -27 -68 -30 -144 -30 -91 1
-141 17 -205 68 l-29 24 29 36 c32 41 45 45 65 20 42 -50 154 -67 224 -33 54
26 75 64 75 134 l0 56 -21 -21 c-36 -36 -109 -62 -171 -62 -138 2 -237 107
-238 251 0 105 45 182 132 227 46 23 63 26 129 23 65 -3 83 -8 127 -35z m-538
-213 l0 -240 -50 0 -50 0 0 240 0 240 50 0 50 0 0 -240z"/>
<path d="M1880 1352 c-70 -32 -106 -94 -97 -168 15 -137 175 -192 277 -95 39
37 40 39 40 109 0 62 -3 74 -27 103 -15 17 -42 38 -60 45 -34 15 -107 18 -133
6z"/>
</g>
</svg>
