<?xml version="1.0" standalone="no"?>
<!DOCTYPE svg PUBLIC "-//W3C//DTD SVG 20010904//EN"
 "http://www.w3.org/TR/2001/REC-SVG-20010904/DTD/svg10.dtd">
<svg version="1.0" xmlns="http://www.w3.org/2000/svg"
 width="277.000000pt" height="277.000000pt" viewBox="0 0 277.000000 277.000000"
 preserveAspectRatio="xMidYMid meet">
<metadata>
Created by potrace 1.11, written by Peter Selinger 2001-2013
</metadata>
<g transform="translate(0.000000,277.000000) scale(0.100000,-0.100000)"
fill="#000000" stroke="none">
<path d="M1454 2468 c-141 -21 -236 -109 -278 -258 -22 -78 -28 -137 -31 -285
-2 -71 -3 -133 -4 -137 -1 -5 -54 -8 -119 -8 -112 0 -118 -1 -145 -25 -20 -19
-27 -35 -27 -63 1 -75 35 -92 182 -92 l113 0 -1 -607 c-1 -639 0 -647 44 -687
30 -26 101 -32 140 -12 64 33 62 12 62 691 l0 615 135 0 c74 0 137 0 140 0 3
0 18 6 34 14 37 20 54 65 39 106 -17 51 -49 60 -209 60 l-142 0 6 163 c11 305
56 362 267 333 119 -17 154 -4 166 59 6 33 -8 73 -30 87 -22 15 -112 37 -176
43 -109 11 -113 11 -166 3z"/>
</g>
</svg>
